<svg width="187" height="48" viewBox="0 0 187 48" fill="none" xmlns="http://www.w3.org/2000/svg">
<path d="M56.1048 15.1045H60.6048V33.2995H56.1048V15.1045ZM62.3898 26.4295C62.3898 21.9295 65.1498 19.2445 69.4098 19.2445C73.6698 19.2445 76.4298 21.9295 76.4298 26.4295C76.4298 30.9295 73.7298 33.6295 69.4098 33.6295C65.0898 33.6295 62.3898 31.0045 62.3898 26.4295ZM71.9148 26.4295C71.9148 23.9545 70.9398 22.4995 69.4098 22.4995C67.8798 22.4995 66.9198 23.9995 66.9198 26.4295C66.9198 28.8595 67.8648 30.3295 69.4098 30.3295C70.9548 30.3295 71.9148 28.9495 71.9148 26.4445V26.4295ZM78.1248 34.1845H82.4448C82.6504 34.6413 82.998 35.0194 83.4358 35.2627C83.8737 35.5059 84.3784 35.6013 84.8748 35.5345C86.5848 35.5345 87.4848 34.6045 87.4848 33.2545V30.7345H87.3948C87.0363 31.5069 86.4545 32.154 85.7246 32.5926C84.9946 33.031 84.15 33.2407 83.2998 33.1945C80.0148 33.1945 77.8398 30.6895 77.8398 26.3845C77.8398 22.0795 79.9098 19.3645 83.3598 19.3645C84.2367 19.3302 85.1031 19.5646 85.843 20.0364C86.583 20.5083 87.1611 21.195 87.4998 22.0045V19.4995H91.9998V33.1495C91.9998 36.4345 89.1048 38.4745 84.8298 38.4745C80.8548 38.4745 78.3798 36.6895 78.1248 34.1995V34.1845ZM87.4998 26.4145C87.4998 24.2245 86.4948 22.8445 84.9048 22.8445C83.3148 22.8445 82.3398 24.2095 82.3398 26.4145C82.3398 28.6195 83.2998 29.8645 84.9048 29.8645C86.5098 29.8645 87.4998 28.6495 87.4998 26.4295V26.4145ZM93.6948 26.4145C93.6948 21.9145 96.4548 19.2295 100.715 19.2295C104.975 19.2295 107.75 21.9145 107.75 26.4145C107.75 30.9145 105.05 33.6145 100.715 33.6145C96.3798 33.6145 93.6948 31.0045 93.6948 26.4295V26.4145ZM103.22 26.4145C103.22 23.9395 102.245 22.4845 100.715 22.4845C99.1848 22.4845 98.2998 23.9995 98.2998 26.4445C98.2998 28.8895 99.2448 30.3445 100.775 30.3445C102.305 30.3445 103.22 28.9495 103.22 26.4445V26.4145ZM109.46 16.2295C109.448 15.7752 109.571 15.3276 109.814 14.9435C110.057 14.5593 110.409 14.2559 110.824 14.0718C111.24 13.8877 111.701 13.831 112.148 13.9091C112.596 13.9872 113.01 14.1965 113.339 14.5104C113.668 14.8243 113.896 15.2287 113.994 15.6724C114.093 16.1161 114.058 16.579 113.893 17.0026C113.728 17.4261 113.441 17.7912 113.068 18.0514C112.696 18.3117 112.254 18.4555 111.8 18.4645C111.499 18.4852 111.196 18.4434 110.912 18.3417C110.628 18.24 110.368 18.0807 110.148 17.8735C109.928 17.6665 109.753 17.4162 109.635 17.1384C109.517 16.8607 109.457 16.5615 109.46 16.2595V16.2295ZM109.46 19.5295H113.96V33.2995H109.46V19.5295ZM130.295 26.4145C130.295 30.9145 128.3 33.4795 124.88 33.4795C124.003 33.5358 123.13 33.3214 122.379 32.8654C121.627 32.4093 121.034 31.7335 120.68 30.9295H120.59V37.7095H116.09V19.4995H120.59V21.9595H120.68C121.018 21.1422 121.6 20.4489 122.346 19.9738C123.092 19.4988 123.966 19.2651 124.85 19.3045C128.3 19.3645 130.355 21.9445 130.355 26.4445L130.295 26.4145ZM125.795 26.4145C125.795 24.2245 124.79 22.8295 123.215 22.8295C121.64 22.8295 120.635 24.2395 120.62 26.4145C120.605 28.5895 121.64 29.9845 123.215 29.9845C124.79 29.9845 125.795 28.6195 125.795 26.4445V26.4145ZM138.02 19.2145C141.755 19.2145 144.02 20.9845 144.125 23.8195H140.03C140.03 22.8445 139.22 22.2295 137.975 22.2295C136.73 22.2295 136.175 22.7095 136.175 23.4145C136.175 24.1195 136.67 24.3445 137.675 24.5545L140.555 25.1395C143.3 25.7245 144.47 26.8345 144.47 28.9195C144.47 31.7695 141.875 33.5995 138.05 33.5995C134.225 33.5995 131.72 31.7695 131.525 28.9645H135.86C135.995 29.9845 136.805 30.5845 138.125 30.5845C139.445 30.5845 140.045 30.1495 140.045 29.4295C140.045 28.7095 139.625 28.5595 138.545 28.3345L135.95 27.7795C133.265 27.2245 131.855 25.7995 131.855 23.6995C131.885 20.9995 134.3 19.2445 138.02 19.2445V19.2145ZM159.485 33.2695H155.15V30.7045H155.06C154.821 31.5657 154.296 32.3194 153.57 32.8407C152.844 33.3618 151.962 33.619 151.07 33.5695C150.386 33.6084 149.702 33.5001 149.064 33.2518C148.426 33.0036 147.848 32.6214 147.37 32.1307C146.893 31.6402 146.526 31.0527 146.294 30.4081C146.063 29.7636 145.973 29.0769 146.03 28.3945V19.4995H150.53V27.3595C150.53 28.9945 151.37 29.8645 152.765 29.8645C153.092 29.8651 153.416 29.796 153.714 29.6614C154.011 29.5269 154.278 29.3301 154.494 29.0844C154.709 28.8385 154.871 28.5495 154.965 28.2366C155.06 27.9235 155.088 27.5938 155.045 27.2695V19.4995H159.545L159.485 33.2695ZM161.66 19.4995H166.01V22.1545H166.1C166.338 21.3048 166.853 20.5581 167.561 20.0316C168.269 19.5051 169.133 19.2282 170.015 19.2445C170.913 19.1727 171.804 19.4413 172.514 19.9972C173.222 20.5531 173.696 21.3553 173.84 22.2445H173.93C174.201 21.3459 174.765 20.5635 175.532 20.0203C176.297 19.4772 177.222 19.2042 178.16 19.2445C178.772 19.224 179.381 19.3324 179.948 19.5628C180.516 19.7931 181.028 20.1403 181.452 20.5816C181.877 21.0231 182.204 21.5488 182.412 22.1247C182.619 22.7005 182.705 23.3139 182.66 23.9245V33.2995H178.16V25.1245C178.16 23.6245 177.485 22.9345 176.225 22.9345C175.944 22.9321 175.665 22.99 175.409 23.1043C175.152 23.2186 174.923 23.3866 174.737 23.5971C174.551 23.8075 174.411 24.0553 174.329 24.324C174.246 24.5928 174.224 24.876 174.26 25.1545V33.2995H169.985V25.0645C169.985 23.6845 169.31 22.9345 168.08 22.9345C167.796 22.9347 167.514 22.995 167.256 23.1115C166.997 23.2282 166.764 23.3985 166.577 23.611C166.388 23.8236 166.247 24.0738 166.161 24.3451C166.077 24.6163 166.05 24.9024 166.085 25.1845V33.2995H161.585L161.66 19.4995Z" fill="#1F2A2E" fill-opacity="0.7"/>
<path d="M43.5198 15.9293C42.7564 14.1839 41.7462 12.5572 40.5198 11.0993C38.707 8.87986 36.4447 7.06943 33.8818 5.78725C31.3189 4.50508 28.5135 3.78021 25.6503 3.66034C22.7871 3.54048 19.9309 4.02834 17.2698 5.09184C14.6087 6.15532 12.203 7.77032 10.2111 9.83054C8.21909 11.8907 6.68602 14.3495 5.71274 17.0449C4.73947 19.7402 4.34804 22.6112 4.56425 25.4688C4.78048 28.3264 5.5994 31.1058 6.96716 33.624C8.33492 36.1423 10.2205 38.3423 12.4998 40.0793C13.9623 41.2162 15.5783 42.1403 17.2998 42.8243C19.7133 43.8134 22.2964 44.3228 24.9048 44.3243C30.2889 44.3125 35.4486 42.1663 39.253 38.3563C43.0573 34.5463 45.1959 29.3834 45.1998 23.9993C45.2037 21.2221 44.6317 18.4742 43.5198 15.9293ZM24.8898 7.78434C27.2322 7.7841 29.5462 8.29605 31.6698 9.28434C31.152 9.50809 30.6075 9.66437 30.0498 9.74935C28.2147 10.015 26.5147 10.867 25.2036 12.1781C23.8924 13.4892 23.0404 15.1892 22.7748 17.0243C22.6582 18.0535 22.1901 19.0109 21.4495 19.7351C20.709 20.4593 19.7413 20.9057 18.7098 20.9993C16.8747 21.265 15.1747 22.117 13.8635 23.4281C12.5524 24.7393 11.7004 26.4393 11.4348 28.2743C11.3448 29.253 10.9273 30.1726 10.2498 30.8843C9.08075 28.4143 8.5556 25.6885 8.72318 22.9609C8.89076 20.2333 9.74563 17.5924 11.2082 15.2839C12.6708 12.9755 14.6936 11.0746 17.0884 9.75811C19.4832 8.4416 22.1721 7.75231 24.9048 7.75434L24.8898 7.78434ZM12.4848 34.4993C12.6648 34.3343 12.8448 34.1843 13.0248 34.0043C14.3593 32.7106 15.2158 31.0027 15.4548 29.1593C15.5516 28.1231 16.0143 27.1553 16.7598 26.4293C17.4772 25.6826 18.4428 25.2238 19.4748 25.1393C21.3099 24.8737 23.0098 24.0217 24.321 22.7105C25.6321 21.3994 26.4841 19.6994 26.7498 17.8643C26.8147 16.7806 27.2797 15.7595 28.0548 14.9993C28.7899 14.2671 29.7646 13.825 30.7998 13.7543C32.4856 13.5224 34.0579 12.7729 35.2998 11.6093C36.7138 12.7825 37.9117 14.1937 38.8398 15.7793C38.7828 15.8563 38.7174 15.9268 38.6448 15.9893C37.9288 16.7426 36.9645 17.2115 35.9298 17.3093C34.0927 17.5703 32.3902 18.4208 31.0782 19.7327C29.7663 21.0448 28.9158 22.7473 28.6548 24.5843C28.549 25.6169 28.0896 26.5813 27.3543 27.3139C26.6188 28.0466 25.6528 28.5025 24.6198 28.6043C22.7793 28.8679 21.073 29.7183 19.7542 31.0288C18.4356 32.3395 17.5747 34.0405 17.2998 35.8793C17.2191 36.6124 16.9672 37.3163 16.5648 37.9343C15.0258 37.0205 13.6474 35.8601 12.4848 34.4993ZM24.8898 40.2893C23.3677 40.291 21.8529 40.0789 20.3898 39.6593C20.8903 38.7263 21.2157 37.7095 21.3498 36.6594C21.4549 35.629 21.9123 34.6664 22.6446 33.9341C23.3769 33.2018 24.3394 32.7445 25.3698 32.6393C27.2076 32.3767 28.911 31.526 30.2251 30.2146C31.5391 28.9033 32.3934 27.2015 32.6598 25.3643C32.7649 24.334 33.2223 23.3714 33.9546 22.6391C34.6869 21.9068 35.6494 21.4495 36.6798 21.3443C38.0628 21.1645 39.381 20.6495 40.5198 19.8443C41.1522 22.2412 41.227 24.751 40.7388 27.1813C40.2505 29.6116 39.2119 31.8979 37.7029 33.8645C36.1939 35.831 34.2546 37.426 32.0334 38.5267C29.8123 39.6274 27.3687 40.2047 24.8898 40.2143V40.2893Z" fill="#1F2A2E" fill-opacity="0.7"/>
</svg>
