<svg width="203" height="40" viewBox="0 0 203 40" fill="none" xmlns="http://www.w3.org/2000/svg">
<g clip-path="url(#clip0_113_1382)">
<path fill-rule="evenodd" clip-rule="evenodd" d="M25.9556 11.6853C24.3111 10.5865 22.3777 10 20.3999 10V0C24.3555 0 28.2223 1.17298 31.5113 3.37061C34.8003 5.56823 37.3637 8.69181 38.8775 12.3463C40.3912 16.0008 40.7873 20.0222 40.0156 23.9018C39.2439 27.7814 37.3391 31.3451 34.542 34.1421C31.745 36.9392 28.1813 38.844 24.3017 39.6157C20.4221 40.3874 16.4007 39.9913 12.7462 38.4776C9.0917 36.9638 5.96813 34.4004 3.77051 31.1114C1.57288 27.8224 0.399902 23.9556 0.399902 20H10.3999C10.3999 21.9778 10.9864 23.9112 12.0852 25.5557C13.184 27.2002 14.7458 28.4819 16.5731 29.2388C18.4003 29.9957 20.411 30.1937 22.3508 29.8078C24.2906 29.422 26.0724 28.4696 27.471 27.0711C28.8695 25.6725 29.8219 23.8907 30.2077 21.9509C30.5936 20.0111 30.3956 18.0004 29.6387 16.1732C28.8818 14.3459 27.6001 12.7841 25.9556 11.6853Z" fill="#1F2A2E" fill-opacity="0.7"/>
<path fill-rule="evenodd" clip-rule="evenodd" d="M10.3999 5.28493e-06C10.3999 1.31322 10.1412 2.61358 9.6387 3.82684C9.13615 5.04009 8.39956 6.14248 7.47097 7.07107C6.54239 7.99966 5.44 8.73625 4.22674 9.2388C3.01348 9.74134 1.71312 10 0.399903 10L0.399902 20C3.02634 20 5.62706 19.4827 8.05358 18.4776C10.4801 17.4725 12.6849 15.9993 14.542 14.1421C16.3992 12.285 17.8724 10.0802 18.8775 7.65367C19.8826 5.22715 20.3999 2.62643 20.3999 0L10.3999 5.28493e-06Z" fill="#1F2A2E" fill-opacity="0.7"/>
<path d="M126.019 14.4521H121.167V29.8644H126.019V14.4521Z" fill="#1F2A2E" fill-opacity="0.7"/>
<path d="M121.707 11.5666C122.214 12.074 122.848 12.3277 123.609 12.3277C124.37 12.3277 124.994 12.074 125.48 11.5666C125.967 11.0381 126.21 10.4038 126.21 9.66385C126.21 8.90277 125.967 8.26849 125.48 7.76111C124.994 7.25369 124.37 7 123.609 7C122.848 7 122.214 7.25369 121.707 7.76111C121.22 8.26849 120.977 8.90277 120.977 9.66385C120.977 10.4038 121.22 11.0381 121.707 11.5666Z" fill="#1F2A2E" fill-opacity="0.7"/>
<path d="M51.5561 29.8647V7.47559H56.535V25.4884H66.4611V29.8647H51.5561Z" fill="#1F2A2E" fill-opacity="0.7"/>
<path fill-rule="evenodd" clip-rule="evenodd" d="M75.4273 30.2135C73.8417 30.2135 72.4041 29.8647 71.1144 29.167C69.8459 28.4482 68.8417 27.4757 68.1017 26.2494C67.3618 25.0232 66.9918 23.649 66.9918 22.1268C66.9918 20.6046 67.3618 19.241 68.1017 18.0359C68.8417 16.8308 69.8459 15.8794 71.1144 15.1818C72.3829 14.4629 73.8206 14.1035 75.4273 14.1035C77.0341 14.1035 78.4717 14.4524 79.7402 15.15C81.0087 15.8477 82.013 16.8097 82.7529 18.0359C83.4929 19.241 83.8629 20.6046 83.8629 22.1268C83.8629 23.649 83.4929 25.0232 82.7529 26.2494C82.013 27.4757 81.0087 28.4482 79.7402 29.167C78.4717 29.8647 77.0341 30.2135 75.4273 30.2135ZM75.4273 25.8055C76.125 25.8055 76.7381 25.6575 77.2667 25.3615C77.7952 25.0444 78.1969 24.611 78.4717 24.0613C78.7677 23.4905 78.9157 22.8456 78.9157 22.1268C78.9157 21.408 78.7677 20.7843 78.4717 20.2558C78.1757 19.7061 77.7635 19.2833 77.2349 18.9873C76.7275 18.6701 76.125 18.5116 75.4273 18.5116C74.7508 18.5116 74.1483 18.6701 73.6197 18.9873C73.0912 19.2833 72.6789 19.7061 72.3829 20.2558C72.0869 20.8055 71.939 21.4397 71.939 22.1585C71.939 22.8562 72.0869 23.4905 72.3829 24.0613C72.6789 24.611 73.0912 25.0444 73.6197 25.3615C74.1483 25.6575 74.7508 25.8055 75.4273 25.8055Z" fill="#1F2A2E" fill-opacity="0.7"/>
<path fill-rule="evenodd" clip-rule="evenodd" d="M87.7056 35.8906C88.9952 36.4825 90.4857 36.7785 92.1771 36.7785C93.8261 36.7785 95.2955 36.4508 96.5851 35.7954C97.8748 35.14 98.8895 34.231 99.6295 33.0682C100.369 31.9054 100.74 30.5312 100.74 28.9455V14.4529H95.9825V15.4884C95.6287 15.1906 95.2269 14.9406 94.7775 14.7383C93.9529 14.3366 93.0121 14.1357 91.9551 14.1357C90.5386 14.1357 89.2806 14.474 88.1813 15.1505C87.0818 15.8059 86.2151 16.715 85.5808 17.8778C84.9465 19.0195 84.6295 20.3091 84.6295 21.7468C84.6295 23.1633 84.9465 24.4529 85.5808 25.6157C86.2151 26.7785 87.0818 27.6982 88.1813 28.3747C89.2806 29.0512 90.5386 29.3895 91.9551 29.3895C92.991 29.3895 93.9318 29.1887 94.7775 28.787C95.1871 28.5924 95.5571 28.3631 95.8874 28.099V29.0724C95.8874 30.1506 95.5386 30.9857 94.8409 31.5777C94.1644 32.1697 93.2236 32.4656 92.0185 32.4656C91.046 32.4656 90.2109 32.2965 89.5132 31.9582C88.8367 31.62 88.2235 31.1231 87.6738 30.4677L84.6929 33.4487C85.4328 34.5058 86.4371 35.3198 87.7056 35.8906ZM94.6189 24.6326C94.1326 24.9286 93.5513 25.0766 92.8747 25.0766C92.1982 25.0766 91.6062 24.9286 91.0988 24.6326C90.6125 24.3366 90.232 23.9349 89.9572 23.4275C89.6823 22.899 89.5449 22.3387 89.5449 21.7468C89.5449 21.1125 89.6823 20.5417 89.9572 20.0343C90.232 19.5269 90.6231 19.1252 91.1305 18.8292C91.6379 18.5332 92.2193 18.3852 92.8747 18.3852C93.5513 18.3852 94.1326 18.5332 94.6189 18.8292C95.1263 19.1252 95.5068 19.5269 95.7606 20.0343C96.0354 20.5417 96.1728 21.1125 96.1728 21.7468C96.1728 22.381 96.0354 22.9518 95.7606 23.4592C95.5068 23.9455 95.1263 24.3366 94.6189 24.6326Z" fill="#1F2A2E" fill-opacity="0.7"/>
<path fill-rule="evenodd" clip-rule="evenodd" d="M110.951 30.2135C109.365 30.2135 107.927 29.8647 106.638 29.167C105.369 28.4482 104.365 27.4757 103.625 26.2494C102.885 25.0232 102.515 23.649 102.515 22.1268C102.515 20.6046 102.885 19.241 103.625 18.0359C104.365 16.8308 105.369 15.8794 106.638 15.1818C107.906 14.4629 109.344 14.1035 110.951 14.1035C112.557 14.1035 113.995 14.4524 115.263 15.15C116.532 15.8477 117.536 16.8097 118.276 18.0359C119.016 19.241 119.386 20.6046 119.386 22.1268C119.386 23.649 119.016 25.0232 118.276 26.2494C117.536 27.4757 116.532 28.4482 115.263 29.167C113.995 29.8647 112.557 30.2135 110.951 30.2135ZM110.951 25.8055C111.648 25.8055 112.261 25.6575 112.79 25.3615C113.318 25.0444 113.72 24.611 113.995 24.0613C114.291 23.4905 114.439 22.8456 114.439 22.1268C114.439 21.408 114.291 20.7843 113.995 20.2558C113.699 19.7061 113.287 19.2833 112.758 18.9873C112.251 18.6701 111.648 18.5116 110.951 18.5116C110.274 18.5116 109.671 18.6701 109.143 18.9873C108.614 19.2833 108.202 19.7061 107.906 20.2558C107.61 20.8055 107.462 21.4397 107.462 22.1585C107.462 22.8562 107.61 23.4905 107.906 24.0613C108.202 24.611 108.614 25.0444 109.143 25.3615C109.671 25.6575 110.274 25.8055 110.951 25.8055Z" fill="#1F2A2E" fill-opacity="0.7"/>
<path fill-rule="evenodd" clip-rule="evenodd" d="M137.681 30.1823C136.646 30.1823 135.694 29.9815 134.827 29.5798C134.371 29.3684 133.959 29.116 133.591 28.8226V36.3663H128.802V14.4529H133.654V15.5166C134.006 15.2287 134.397 14.9798 134.827 14.77C135.694 14.3471 136.646 14.1357 137.681 14.1357C139.14 14.1357 140.43 14.4846 141.55 15.1823C142.692 15.8799 143.58 16.8313 144.214 18.0364C144.87 19.2415 145.197 20.6157 145.197 22.159C145.197 23.7024 144.87 25.0766 144.214 26.2817C143.58 27.4868 142.692 28.4381 141.55 29.1358C140.43 29.8335 139.14 30.1823 137.681 30.1823ZM136.794 25.806C137.491 25.806 138.094 25.6474 138.601 25.3303C139.13 25.0132 139.542 24.5797 139.838 24.0301C140.134 23.4804 140.282 22.8567 140.282 22.159C140.282 21.4402 140.134 20.806 139.838 20.2563C139.542 19.7066 139.13 19.2838 138.601 18.9878C138.094 18.6706 137.502 18.5121 136.825 18.5121C136.149 18.5121 135.546 18.6706 135.018 18.9878C134.51 19.2838 134.109 19.7066 133.813 20.2563C133.517 20.806 133.369 21.4402 133.369 22.159C133.369 22.8567 133.506 23.4804 133.781 24.0301C134.077 24.5797 134.489 25.0132 135.018 25.3303C135.546 25.6474 136.138 25.806 136.794 25.806Z" fill="#1F2A2E" fill-opacity="0.7"/>
<path d="M149.946 29.8968C150.834 30.1294 151.732 30.2456 152.641 30.2456C154.565 30.2456 156.087 29.8017 157.208 28.9137C158.349 28.0258 158.92 26.8313 158.92 25.3302C158.92 24.3577 158.741 23.5754 158.381 22.9835C158.022 22.3704 157.557 21.8841 156.986 21.5247C156.415 21.1653 155.812 20.8798 155.178 20.6684C154.544 20.457 153.941 20.2773 153.371 20.1293C152.8 19.9813 152.335 19.8122 151.975 19.6219C151.616 19.4316 151.436 19.1779 151.436 18.8608C151.436 18.5648 151.574 18.3428 151.848 18.1948C152.123 18.0257 152.535 17.9412 153.085 17.9412C153.656 17.9412 154.237 18.0574 154.829 18.29C155.442 18.5225 155.992 18.9243 156.478 19.4951L159.237 16.7044C158.54 15.8164 157.631 15.1504 156.51 14.7065C155.411 14.2414 154.206 14.0088 152.895 14.0088C151.648 14.0088 150.559 14.2202 149.629 14.643C148.698 15.0659 147.979 15.6473 147.472 16.3872C146.965 17.106 146.711 17.9623 146.711 18.956C146.711 19.8862 146.891 20.6579 147.25 21.271C147.609 21.8629 148.075 22.3281 148.645 22.6663C149.216 23.0046 149.819 23.2689 150.453 23.4591C151.087 23.6494 151.69 23.8291 152.261 23.9983C152.831 24.1463 153.297 24.326 153.656 24.5374C154.037 24.7277 154.227 25.0131 154.227 25.3936C154.227 25.6896 154.068 25.9221 153.751 26.0913C153.455 26.2604 153.022 26.345 152.451 26.345C151.626 26.345 150.865 26.197 150.168 25.901C149.47 25.5839 148.867 25.1505 148.36 24.6008L145.601 27.3915C146.13 27.9623 146.764 28.4698 147.504 28.9137C148.265 29.3365 149.079 29.6642 149.946 29.8968Z" fill="#1F2A2E" fill-opacity="0.7"/>
<path d="M167.768 30.2132C166.352 30.2132 165.094 29.9278 163.995 29.357C162.916 28.765 162.071 27.9616 161.458 26.9468C160.844 25.9109 160.538 24.727 160.538 23.395V14.4521H165.39V23.3316C165.39 23.8601 165.474 24.3147 165.644 24.6952C165.834 25.0758 166.109 25.3718 166.468 25.5832C166.828 25.7946 167.261 25.9003 167.768 25.9003C168.487 25.9003 169.058 25.6783 169.481 25.2343C169.904 24.7692 170.115 24.135 170.115 23.3316V14.4521H174.967V23.3633C174.967 24.7164 174.661 25.9109 174.047 26.9468C173.434 27.9616 172.589 28.765 171.51 29.357C170.432 29.9278 169.185 30.2132 167.768 30.2132Z" fill="#1F2A2E" fill-opacity="0.7"/>
<path d="M182.231 14.4529H177.379V29.8652H182.231V20.8588C182.231 20.3303 182.337 19.8863 182.548 19.5269C182.781 19.1675 183.088 18.8926 183.468 18.7024C183.849 18.4909 184.282 18.3852 184.768 18.3852C185.466 18.3852 186.047 18.6072 186.512 19.0512C186.999 19.474 187.242 20.0766 187.242 20.8588V29.8652H192.094V20.8588C192.094 20.3303 192.2 19.8863 192.411 19.5269C192.644 19.1675 192.95 18.8926 193.331 18.7024C193.711 18.4909 194.145 18.3852 194.631 18.3852C195.329 18.3852 195.91 18.6072 196.375 19.0512C196.861 19.474 197.104 20.0766 197.104 20.8588V29.8652H201.957V20.3197C201.957 19.0301 201.682 17.9307 201.132 17.0216C200.603 16.0913 199.874 15.3831 198.944 14.8969C198.035 14.3894 196.988 14.1357 195.804 14.1357C194.599 14.1357 193.51 14.4 192.538 14.9286C191.906 15.2653 191.354 15.6999 190.881 16.2323C190.44 15.6754 189.904 15.2197 189.271 14.8651C188.426 14.3789 187.464 14.1357 186.386 14.1357C185.244 14.1357 184.219 14.3789 183.31 14.8651C182.914 15.0674 182.555 15.3097 182.231 15.592V14.4529Z" fill="#1F2A2E" fill-opacity="0.7"/>
</g>
<defs>
<clipPath id="clip0_113_1382">
<rect width="202" height="40" fill="white" transform="translate(0.399902)"/>
</clipPath>
</defs>
</svg>
