<svg width="192" height="32" viewBox="0 0 192 32" fill="none" xmlns="http://www.w3.org/2000/svg">
<g clip-path="url(#clip0_113_1395)">
<path d="M167.985 25.7024V9.77273H172.16V12.6082H172.36C172.693 11.6678 173.248 10.9268 174.026 10.3854C174.805 9.84399 175.732 9.57324 176.805 9.57324C177.898 9.57324 178.824 9.84875 179.584 10.3997C180.353 10.9411 180.866 11.6773 181.123 12.6082H181.294C181.617 11.6868 182.205 10.9506 183.061 10.3997C183.915 9.84875 184.922 9.57324 186.081 9.57324C187.562 9.57324 188.769 10.0435 189.7 10.9839C190.641 11.9242 191.111 13.2589 191.111 14.9876V25.7024H186.694V15.8711C186.694 14.9781 186.456 14.3132 185.981 13.8763C185.516 13.4393 184.931 13.2209 184.229 13.2209C183.431 13.2209 182.804 13.4773 182.348 13.9903C181.902 14.4937 181.678 15.1586 181.678 15.985V25.7024H177.404V15.757C177.404 14.9876 177.18 14.375 176.734 13.919C176.288 13.4536 175.704 13.2209 174.982 13.2209C174.488 13.2209 174.046 13.3443 173.656 13.5914C173.267 13.8383 172.958 14.1802 172.73 14.6172C172.502 15.0446 172.388 15.5576 172.388 16.156V25.7024H167.985Z" fill="#1F2A2E" fill-opacity="0.7"/>
<path d="M161.705 18.9342V9.77246H166.108V25.7021H161.876V22.8097H161.705C161.344 23.7312 160.75 24.4815 159.924 25.061C159.097 25.631 158.086 25.9112 156.889 25.9016C155.825 25.9016 154.885 25.6642 154.068 25.1892C153.26 24.7048 152.629 24.0161 152.173 23.1232C151.726 22.2303 151.503 21.1617 151.503 19.9173V9.77246H155.906V19.1479C155.906 20.0788 156.157 20.8197 156.661 21.3707C157.165 21.9121 157.834 22.1781 158.67 22.1686C159.202 22.1686 159.696 22.0498 160.152 21.8123C160.608 21.5654 160.978 21.1997 161.263 20.7152C161.557 20.2308 161.705 19.6371 161.705 18.9342Z" fill="#1F2A2E" fill-opacity="0.7"/>
<path d="M150.01 14.318L145.977 14.5602C145.873 14.0568 145.592 13.6246 145.137 13.2636C144.681 12.8931 144.068 12.7079 143.299 12.7079C142.615 12.7079 142.04 12.8504 141.575 13.1354C141.119 13.4203 140.891 13.8003 140.891 14.2752C140.891 14.6552 141.038 14.9829 141.333 15.2584C141.636 15.5244 142.154 15.7333 142.886 15.8853L145.778 16.4553C147.327 16.7687 148.48 17.2769 149.24 17.9798C150.001 18.6827 150.38 19.6089 150.38 20.7583C150.38 21.8126 150.076 22.7341 149.468 23.5224C148.86 24.3014 148.024 24.914 146.961 25.3605C145.897 25.7974 144.676 26.0159 143.299 26.0159C141.19 26.0159 139.509 25.5742 138.255 24.6908C137.01 23.8074 136.284 22.6105 136.075 21.1002L140.392 20.8722C140.535 21.5181 140.857 22.0073 141.361 22.3398C141.865 22.6722 142.51 22.8385 143.299 22.8385C144.068 22.8385 144.69 22.6865 145.166 22.3825C145.649 22.0786 145.892 21.6939 145.892 21.2284C145.892 20.4401 145.208 19.9081 143.84 19.6326L141.091 19.0627C139.542 18.7492 138.388 18.2125 137.628 17.4527C136.868 16.6927 136.488 15.719 136.488 14.5317C136.488 13.5058 136.768 12.6225 137.329 11.8815C137.889 11.1406 138.673 10.5706 139.679 10.1717C140.696 9.77273 141.884 9.57324 143.242 9.57324C145.255 9.57324 146.837 10.0007 147.986 10.8557C149.145 11.701 149.82 12.8551 150.01 14.318Z" fill="#1F2A2E" fill-opacity="0.7"/>
<path d="M120.077 31.6582V9.77273H124.408V12.4657H124.608C124.807 12.0287 125.092 11.5871 125.463 11.1406C125.833 10.6942 126.318 10.3237 126.916 10.0292C127.515 9.72528 128.256 9.57324 129.139 9.57324C130.307 9.57324 131.376 9.87724 132.344 10.4852C133.323 11.0836 134.107 11.9907 134.695 13.2066C135.285 14.4225 135.579 15.9423 135.579 17.7661C135.579 19.5329 135.294 21.0289 134.724 22.2543C134.154 23.4702 133.38 24.3916 132.401 25.0185C131.433 25.6454 130.34 25.9589 129.124 25.9589C128.27 25.9589 127.543 25.8164 126.944 25.5315C126.346 25.2465 125.857 24.8903 125.477 24.4628C125.106 24.0258 124.817 23.5889 124.608 23.152H124.48V31.6582H120.077ZM127.728 22.4538C128.45 22.4538 129.058 22.2543 129.552 21.8554C130.046 21.4564 130.421 20.9055 130.677 20.2025C130.934 19.4901 131.062 18.6733 131.062 17.7518C131.062 16.8305 130.934 16.023 130.677 15.3297C130.431 14.6267 130.06 14.0758 129.566 13.6768C129.072 13.2778 128.459 13.0784 127.728 13.0784C127.016 13.0784 126.408 13.2731 125.905 13.6625C125.411 14.0426 125.031 14.584 124.764 15.2869C124.508 15.9803 124.38 16.802 124.38 17.7518C124.38 18.6922 124.513 19.5139 124.778 20.2168C125.045 20.9197 125.425 21.4707 125.919 21.8696C126.422 22.2591 127.025 22.4538 127.728 22.4538Z" fill="#1F2A2E" fill-opacity="0.7"/>
<path d="M113.796 25.7023V9.77263H118.199V25.7023H113.796ZM115.99 7.73514C115.335 7.73514 114.774 7.51665 114.309 7.07971C113.844 6.64276 113.611 6.11557 113.611 5.49814C113.611 4.88071 113.844 4.35827 114.309 3.93081C114.774 3.49386 115.335 3.27539 115.99 3.27539C116.655 3.27539 117.22 3.49386 117.686 3.93081C118.151 4.35827 118.384 4.88071 118.384 5.49814C118.384 6.11557 118.151 6.64276 117.686 7.07971C117.22 7.51665 116.655 7.73514 115.99 7.73514Z" fill="#1F2A2E" fill-opacity="0.7"/>
<path d="M104.737 26.0159C103.132 26.0159 101.74 25.6739 100.562 24.99C99.3939 24.2966 98.4916 23.3372 97.8547 22.1119C97.228 20.877 96.915 19.4427 96.915 17.8089C96.915 16.156 97.228 14.717 97.8547 13.4916C98.4916 12.2567 99.3939 11.2973 100.562 10.6134C101.74 9.92001 103.132 9.57324 104.737 9.57324C106.352 9.57324 107.744 9.92001 108.912 10.6134C110.09 11.2973 110.992 12.2567 111.619 13.4916C112.256 14.717 112.574 16.156 112.574 17.8089C112.574 19.4427 112.256 20.877 111.619 22.1119C110.992 23.3372 110.09 24.2966 108.912 24.99C107.744 25.6739 106.352 26.0159 104.737 26.0159ZM104.765 22.5678C105.497 22.5678 106.11 22.3636 106.603 21.9551C107.097 21.5372 107.468 20.9672 107.715 20.2453C107.971 19.5234 108.099 18.7017 108.099 17.7803C108.099 16.8494 107.971 16.0278 107.715 15.3154C107.468 14.6029 107.097 14.0425 106.603 13.634C106.11 13.2256 105.497 13.0214 104.765 13.0214C104.025 13.0214 103.402 13.2256 102.899 13.634C102.405 14.0425 102.03 14.6029 101.774 15.3154C101.526 16.0278 101.403 16.8494 101.403 17.7803C101.403 18.7017 101.526 19.5234 101.774 20.2453C102.03 20.9672 102.405 21.5372 102.899 21.9551C103.402 22.3636 104.025 22.5678 104.765 22.5678Z" fill="#1F2A2E" fill-opacity="0.7"/>
<path d="M87.9269 32.0002C85.7798 32.0002 84.0986 31.5728 82.8826 30.7178C81.6666 29.8725 80.9259 28.818 80.6598 27.5547L84.7355 27.0133C84.8588 27.3363 85.0531 27.6354 85.3193 27.911C85.5854 28.1864 85.9413 28.4049 86.3878 28.5663C86.8342 28.7373 87.3805 28.8228 88.0268 28.8228C88.986 28.8228 89.779 28.5901 90.4057 28.1247C91.0332 27.6687 91.3462 26.8945 91.3462 25.8022V22.8813H91.1612C90.9708 23.3182 90.6812 23.7361 90.2918 24.1351C89.9023 24.5341 89.4036 24.8571 88.7956 25.104C88.1876 25.351 87.4609 25.4744 86.6157 25.4744C85.4192 25.4744 84.3312 25.199 83.3532 24.6481C82.3839 24.0877 81.6049 23.2327 81.0164 22.0834C80.4365 20.9339 80.147 19.4807 80.147 17.7233C80.147 15.9091 80.4412 14.3988 81.0305 13.1924C81.6291 11.986 82.4174 11.0836 83.3954 10.4852C84.3741 9.87724 85.4473 9.57324 86.6157 9.57324C87.5085 9.57324 88.2547 9.72528 88.8525 10.0292C89.4605 10.3237 89.9546 10.6942 90.3347 11.1406C90.7148 11.5871 90.9997 12.0287 91.1893 12.4657H91.3602V9.77273H95.706V25.8734C95.706 27.2223 95.3735 28.3526 94.7093 29.2646C94.0443 30.1764 93.1273 30.8603 91.9589 31.3163C90.7905 31.7723 89.4465 32.0002 87.9269 32.0002ZM88.012 22.1546C89.0758 22.1546 89.8976 21.7604 90.4775 20.972C91.066 20.1836 91.3602 19.0912 91.3602 17.6948C91.3602 16.764 91.2276 15.9565 90.9614 15.2726C90.7054 14.5792 90.33 14.0426 89.8359 13.6625C89.3419 13.2731 88.7339 13.0784 88.012 13.0784C87.29 13.0784 86.6773 13.2778 86.1739 13.6768C85.6799 14.0663 85.3052 14.6077 85.0484 15.3011C84.7924 15.9946 84.6637 16.7924 84.6637 17.6948C84.6637 18.6068 84.7924 19.3999 85.0484 20.0743C85.3052 20.7393 85.6799 21.2522 86.1739 21.6131C86.6773 21.9741 87.29 22.1546 88.012 22.1546Z" fill="#1F2A2E" fill-opacity="0.7"/>
<path d="M71.7435 26.0159C70.1382 26.0159 68.7466 25.6739 67.5688 24.99C66.4004 24.2966 65.498 23.3372 64.8615 22.1119C64.2347 20.877 63.9211 19.4427 63.9211 17.8089C63.9211 16.156 64.2347 14.717 64.8615 13.4916C65.498 12.2567 66.4004 11.2973 67.5688 10.6134C68.7466 9.92001 70.1382 9.57324 71.7435 9.57324C73.3583 9.57324 74.7499 9.92001 75.9183 10.6134C77.0962 11.2973 77.9986 12.2567 78.6255 13.4916C79.262 14.717 79.5805 16.156 79.5805 17.8089C79.5805 19.4427 79.262 20.877 78.6255 22.1119C77.9986 23.3372 77.0962 24.2966 75.9183 24.99C74.7499 25.6739 73.3583 26.0159 71.7435 26.0159ZM71.772 22.5678C72.5035 22.5678 73.1161 22.3636 73.61 21.9551C74.104 21.5372 74.4745 20.9672 74.7215 20.2453C74.9779 19.5234 75.1062 18.7017 75.1062 17.7803C75.1062 16.8494 74.9779 16.0278 74.7215 15.3154C74.4745 14.6029 74.104 14.0425 73.61 13.634C73.1161 13.2256 72.5035 13.0214 71.772 13.0214C71.0312 13.0214 70.4089 13.2256 69.9055 13.634C69.4116 14.0425 69.0363 14.6029 68.7798 15.3154C68.5329 16.0278 68.4094 16.8494 68.4094 17.7803C68.4094 18.7017 68.5329 19.5234 68.7798 20.2453C69.0363 20.9672 69.4116 21.5372 69.9055 21.9551C70.4089 22.3636 71.0312 22.5678 71.772 22.5678Z" fill="#1F2A2E" fill-opacity="0.7"/>
<path d="M49.761 25.7017V4.47168H54.235V21.9972H63.3397V25.7017H49.761Z" fill="#1F2A2E" fill-opacity="0.7"/>
<path d="M29.7764 31.2195C34.7972 31.1172 38.8342 27.0106 38.8342 21.9621C38.8342 19.5068 37.8596 17.1522 36.1245 15.416L20.7187 0V9.58213C20.7187 11.1846 21.3549 12.7216 22.4874 13.8548L26.0963 17.4661L26.1061 17.4757L32.1573 23.5309C32.3538 23.7275 32.3538 24.0464 32.1573 24.243C31.9609 24.4396 31.6422 24.4396 31.4457 24.243L29.3599 22.1558H10.0647L7.97886 24.243C7.78234 24.4396 7.46373 24.4396 7.26722 24.243C7.0707 24.0464 7.0707 23.7275 7.26721 23.5309L13.3184 17.4757L13.3283 17.4661L16.9372 13.8548C18.0697 12.7216 18.7058 11.1846 18.7058 9.58213V0L3.29999 15.416C1.56502 17.1522 0.590332 19.5068 0.590332 21.9621C0.590332 27.0106 4.62742 31.1172 9.64813 31.2195H29.7764Z" fill="#1F2A2E" fill-opacity="0.7"/>
</g>
<defs>
<clipPath id="clip0_113_1395">
<rect width="191.22" height="32" fill="white" transform="translate(0.590332)"/>
</clipPath>
</defs>
</svg>
