<svg width="151" height="40" viewBox="0 0 151 40" fill="none" xmlns="http://www.w3.org/2000/svg">
<g clip-path="url(#clip0_113_1363)">
<path fill-rule="evenodd" clip-rule="evenodd" d="M1.04395 4.40336L3.66164 3.26389C13.3929 -0.972079 24.4472 -0.972079 34.1785 3.26389L36.7962 4.40336V22.0114C36.7962 31.8841 28.7928 39.8876 18.92 39.8876C9.04734 39.8876 1.04395 31.8841 1.04395 22.0114V4.40336ZM6.70766 8.12715V15.8328C7.31166 15.6866 7.90479 15.4935 8.48154 15.2545C9.94175 14.6497 11.2685 13.7632 12.3861 12.6456C13.5037 11.528 14.3902 10.2012 14.9951 8.74103C15.3731 7.82846 15.6364 6.8749 15.7808 5.90223C12.6914 6.20131 9.63478 6.94297 6.70766 8.12715ZM6.70869 22.1726C7.31233 22.3188 7.90511 22.5118 8.48154 22.7505C9.94175 23.3554 11.2685 24.2419 12.3861 25.3595C13.5037 26.4771 14.3902 27.8039 14.9951 29.2641C15.5974 30.7183 15.9087 32.2765 15.9112 33.8503C10.6713 32.5227 6.78157 27.8079 6.70869 22.1726ZM18.7431 24.2665C18.0658 23.218 17.2779 22.2415 16.391 21.3547C15.5041 20.4678 14.5276 19.6798 13.4791 19.0025C14.5276 18.3253 15.5041 17.5373 16.391 16.6504C17.2779 15.7636 18.0658 14.7871 18.7431 13.7386C19.4203 14.7871 20.2083 15.7636 21.0952 16.6504C21.982 17.5373 22.9585 18.3253 24.007 19.0025C22.9585 19.6798 21.982 20.4678 21.0952 21.3547C20.2083 22.2415 19.4203 23.218 18.7431 24.2665ZM21.5749 33.9344C27.0178 32.7278 31.0946 27.8895 31.1322 22.0923C30.4059 22.2451 29.6936 22.4652 29.0046 22.7505C27.5444 23.3554 26.2176 24.2419 25.1 25.3595C23.9824 26.4771 23.0959 27.8039 22.4911 29.2641C21.8862 30.7242 21.5749 32.2893 21.5749 33.8698V33.9344ZM29.0046 15.2545C29.6936 15.54 30.4061 15.76 31.1324 15.9128V8.12715C28.0921 6.89713 24.9119 6.14457 21.7005 5.86949C21.8438 6.85352 22.1088 7.81823 22.4911 8.74103C23.0959 10.2012 23.9824 11.528 25.1 12.6456C26.2176 13.7632 27.5444 14.6497 29.0046 15.2545Z" fill="#1F2A2E" fill-opacity="0.7"/>
<path fill-rule="evenodd" clip-rule="evenodd" d="M79.3265 36.374C78.4769 36.374 77.7123 36.1701 77.0327 35.7623C76.353 35.343 75.815 34.7766 75.4185 34.063C75.0334 33.3381 74.8408 32.5225 74.8408 31.6163C74.8408 30.6988 75.0334 29.8832 75.4185 29.1696C75.815 28.4559 76.3474 27.8952 77.0157 27.4874C77.6953 27.0683 78.4656 26.8588 79.3265 26.8588C80.1081 26.8588 80.8047 27.0287 81.4164 27.3685C81.9173 27.6467 82.3307 28.0046 82.6568 28.4422V23.3076H83.9311V36.1701H82.6568V34.6859C82.3516 35.1683 81.9438 35.5555 81.4334 35.8472C80.8104 36.1984 80.1081 36.374 79.3265 36.374ZM79.3944 35.0995C80.0061 35.0995 80.5555 34.9466 81.0426 34.6407C81.541 34.3349 81.9318 33.9214 82.215 33.4004C82.5095 32.868 82.6568 32.2733 82.6568 31.6163C82.6568 30.9593 82.5095 30.3703 82.215 29.8492C81.9318 29.3168 81.541 28.8977 81.0426 28.5919C80.5555 28.286 80.0061 28.1331 79.3944 28.1331C78.7941 28.1331 78.2504 28.286 77.7633 28.5919C77.2762 28.8977 76.8911 29.3112 76.6079 29.8322C76.336 30.3533 76.2001 30.948 76.2001 31.6163C76.2001 32.2733 76.336 32.868 76.6079 33.4004C76.8911 33.9214 77.2706 34.3349 77.7463 34.6407C78.2334 34.9466 78.7828 35.0995 79.3944 35.0995Z" fill="#1F2A2E" fill-opacity="0.7"/>
<path fill-rule="evenodd" clip-rule="evenodd" d="M87.873 35.7629C88.564 36.1707 89.3343 36.3746 90.1838 36.3746C90.8068 36.3746 91.3732 36.2726 91.8829 36.0687C92.404 35.8535 92.8514 35.576 93.2252 35.236C93.599 34.8849 93.8766 34.5054 94.0578 34.0976L92.9704 33.5199C92.6872 33.9957 92.319 34.3921 91.866 34.7093C91.4129 35.0265 90.8522 35.185 90.1838 35.185C89.6061 35.185 89.0624 35.0378 88.5527 34.7433C88.0543 34.4488 87.6578 34.0353 87.3633 33.5029C87.1346 33.0637 87.0167 32.5653 87.0097 32.0077H94.1768C94.1994 31.8604 94.2164 31.7188 94.2277 31.5829C94.239 31.4357 94.2447 31.3054 94.2447 31.1921C94.2447 30.6484 94.1484 30.1217 93.9559 29.6119C93.7633 29.0909 93.4858 28.6265 93.1233 28.2187C92.7608 27.7996 92.3191 27.4711 91.798 27.2332C91.2883 26.984 90.7049 26.8594 90.0479 26.8594C89.221 26.8594 88.4734 27.0633 87.8051 27.4711C87.1481 27.8788 86.627 28.4396 86.2419 29.1532C85.8568 29.8555 85.6642 30.6654 85.6642 31.5829C85.6642 32.5004 85.8624 33.3217 86.2589 34.0466C86.6553 34.7716 87.1934 35.3436 87.873 35.7629ZM87.0298 30.8183C87.072 30.4166 87.1775 30.0541 87.3463 29.7309C87.6182 29.1985 87.992 28.785 88.4677 28.4905C88.9548 28.196 89.4815 28.0488 90.0479 28.0488C90.6143 28.0488 91.124 28.196 91.5771 28.4905C92.0302 28.7737 92.3757 29.1645 92.6136 29.6629C92.7927 30.013 92.8808 30.3981 92.8787 30.8183H87.0298Z" fill="#1F2A2E" fill-opacity="0.7"/>
<path d="M95.9817 27.0633H97.256V28.1727C97.4882 27.8142 97.7884 27.5237 98.1566 27.3011C98.655 27.0066 99.1987 26.8594 99.7877 26.8594C100.49 26.8594 101.124 27.0576 101.691 27.4541C102.129 27.7605 102.468 28.1381 102.71 28.5867C102.943 28.0933 103.277 27.7044 103.713 27.4201C104.279 27.0463 104.902 26.8594 105.582 26.8594C106.193 26.8594 106.754 27.0066 107.264 27.3011C107.785 27.5957 108.198 28.0034 108.504 28.5245C108.821 29.0342 108.98 29.6119 108.98 30.2576V36.1707H107.706V30.7503C107.706 30.1953 107.604 29.7252 107.4 29.3401C107.207 28.9549 106.941 28.6604 106.601 28.4565C106.261 28.2413 105.871 28.1337 105.429 28.1337C104.998 28.1337 104.608 28.2413 104.256 28.4565C103.905 28.6604 103.628 28.9606 103.424 29.3571C103.22 29.7422 103.118 30.2066 103.118 30.7503V36.1707H101.844V30.7503C101.844 30.1953 101.742 29.7252 101.538 29.3401C101.345 28.9549 101.079 28.6604 100.739 28.4565C100.399 28.2413 100.009 28.1337 99.5668 28.1337C99.125 28.1337 98.7286 28.2413 98.3774 28.4565C98.0376 28.6604 97.7658 28.9606 97.5619 29.3571C97.358 29.7422 97.256 30.2066 97.256 30.7503V36.1707H95.9817V27.0633Z" fill="#1F2A2E" fill-opacity="0.7"/>
<path d="M110.924 39.9089C110.743 39.9089 110.556 39.8919 110.364 39.858C110.182 39.8353 110.001 39.79 109.82 39.722V38.5326C109.933 38.544 110.075 38.561 110.245 38.5836C110.426 38.6176 110.607 38.6346 110.788 38.6346C111.343 38.6346 111.768 38.5157 112.063 38.2778C112.357 38.0512 112.646 37.6095 112.929 36.9525L113.258 36.1776L109.616 27.0635H110.992L113.974 34.5812L116.939 27.0635H118.349L114.187 37.3263C114.005 37.768 113.773 38.1872 113.49 38.5836C113.218 38.9801 112.873 39.2972 112.453 39.5351C112.034 39.7843 111.525 39.9089 110.924 39.9089Z" fill="#1F2A2E" fill-opacity="0.7"/>
<path fill-rule="evenodd" clip-rule="evenodd" d="M67.0882 36.0517C67.5413 36.2669 68.0567 36.3746 68.6348 36.3746C69.1671 36.3746 69.6542 36.2953 70.0956 36.1367C70.5487 35.9668 70.9395 35.7459 71.268 35.474C71.4956 35.2843 71.6825 35.082 71.8287 34.867V36.1707H73.1034V29.9178C73.1034 29.3174 72.9562 28.7907 72.6613 28.3376C72.3781 27.8732 71.976 27.5107 71.4553 27.2502C70.9452 26.9896 70.3565 26.8594 69.6879 26.8594C69.1785 26.8594 68.6854 26.9557 68.2096 27.1482C67.7339 27.3295 67.3091 27.5787 66.9353 27.8958C66.5732 28.213 66.3066 28.5642 66.1367 28.9493L67.2925 29.578C67.496 29.1362 67.8075 28.7794 68.227 28.5075C68.6457 28.2243 69.1328 28.0827 69.6879 28.0827C70.3222 28.0827 70.8379 28.2526 71.2344 28.5925C71.6305 28.9323 71.8287 29.3741 71.8287 29.9178V30.3879L68.5325 30.9373C67.8641 31.0505 67.3148 31.2431 66.8847 31.515C66.4539 31.7868 66.1367 32.121 65.9328 32.5174C65.7293 32.9026 65.6273 33.333 65.6273 33.8088C65.6273 34.3072 65.7572 34.7489 66.0178 35.1341C66.2786 35.5193 66.6351 35.8252 67.0882 36.0517ZM71.8287 31.5433V32.2286C71.8287 32.7836 71.6988 33.2877 71.4379 33.7408C71.1774 34.1939 70.8149 34.5564 70.3509 34.8282C69.8864 35.0888 69.3427 35.219 68.7194 35.219C68.2096 35.219 67.7905 35.0774 67.462 34.7942C67.1452 34.5111 66.9866 34.1656 66.9866 33.7578C66.9866 33.3387 67.1282 32.9762 67.411 32.6703C67.7055 32.3645 68.1813 32.155 68.8383 32.0417L71.8287 31.5433Z" fill="#1F2A2E" fill-opacity="0.7"/>
<path d="M60.6514 36.3746C59.7565 36.3746 58.9693 36.165 58.2896 35.7459C57.61 35.3266 57.0776 34.7603 56.6924 34.0466C56.3073 33.3217 56.1147 32.5061 56.1147 31.5999C56.1147 30.6937 56.3073 29.8838 56.6924 29.1702C57.0776 28.4565 57.61 27.8958 58.2896 27.488C58.9693 27.0689 59.7565 26.8594 60.6514 26.8594C61.2178 26.8594 61.7501 26.9613 62.2486 27.1652C62.747 27.3691 63.1887 27.6466 63.5739 27.9978C63.959 28.3376 64.2478 28.7341 64.4404 29.1872L63.285 29.7819C63.0585 29.2948 62.713 28.8983 62.2486 28.5925C61.7841 28.2866 61.2517 28.1337 60.6514 28.1337C60.051 28.1337 59.5073 28.2866 59.0202 28.5925C58.5445 28.887 58.165 29.3004 57.8818 29.8328C57.61 30.3539 57.474 30.9486 57.474 31.6169C57.474 32.2739 57.61 32.8686 57.8818 33.401C58.165 33.922 58.5445 34.3355 59.0202 34.6413C59.5073 34.9472 60.051 35.1001 60.6514 35.1001C61.2517 35.1001 61.7785 34.9472 62.2316 34.6413C62.696 34.3355 63.0471 33.9277 63.285 33.418L64.4404 34.0466C64.2478 34.4884 63.959 34.8849 63.5739 35.236C63.1887 35.5873 62.747 35.8648 62.2486 36.0687C61.7501 36.2726 61.2178 36.3746 60.6514 36.3746Z" fill="#1F2A2E" fill-opacity="0.7"/>
<path fill-rule="evenodd" clip-rule="evenodd" d="M49.7462 23.5127L45.1246 36.1712H46.5519L47.6563 33.0787H53.3144L54.4018 36.1712H55.8291L51.2075 23.5127H49.7462ZM52.8386 31.8044H48.0981L50.4761 25.1082L52.8386 31.8044Z" fill="#1F2A2E" fill-opacity="0.7"/>
<path d="M46.2761 3.00879V18.1178H55.8082V15.3799H49.4195V3.00879H46.2761Z" fill="#1F2A2E" fill-opacity="0.7"/>
<path d="M94.2811 18.1171H97.3233V7.04395H94.2811V18.1171Z" fill="#1F2A2E" fill-opacity="0.7"/>
<path d="M94.2811 3.00879V6.05088H97.3233V3.00879H94.2811Z" fill="#1F2A2E" fill-opacity="0.7"/>
<path fill-rule="evenodd" clip-rule="evenodd" d="M98.9409 22.1734V7.04414H101.78V8.19289C102.108 7.80683 102.514 7.49827 102.997 7.26722C103.632 6.95625 104.356 6.80078 105.167 6.80078C106.222 6.80078 107.175 7.05767 108.027 7.57144C108.878 8.08521 109.554 8.78149 110.055 9.66032C110.555 10.5256 110.805 11.4991 110.805 12.5807C110.805 13.6488 110.555 14.6223 110.055 15.5011C109.568 16.3799 108.898 17.0762 108.047 17.59C107.195 18.1038 106.228 18.3606 105.147 18.3606C104.389 18.3606 103.686 18.2255 103.038 17.955C102.638 17.7765 102.286 17.5471 101.983 17.2669V22.1734H98.9409ZM104.782 15.6228C105.349 15.6228 105.85 15.4943 106.283 15.2375C106.715 14.9806 107.053 14.6223 107.296 14.1626C107.54 13.7029 107.661 13.1756 107.661 12.5807C107.661 11.9858 107.54 11.4653 107.296 11.0191C107.053 10.5594 106.715 10.2011 106.283 9.94425C105.85 9.67384 105.349 9.53862 104.782 9.53862C104.241 9.53862 103.754 9.66708 103.321 9.92397C102.902 10.1809 102.571 10.5391 102.328 10.9988C102.098 11.4585 101.983 11.9858 101.983 12.5807C101.983 13.1756 102.098 13.7029 102.328 14.1626C102.571 14.6223 102.902 14.9806 103.321 15.2375C103.754 15.4943 104.241 15.6228 104.782 15.6228Z" fill="#1F2A2E" fill-opacity="0.7"/>
<path d="M113.134 17.5089C114.04 18.0767 115.101 18.3606 116.318 18.3606C117.183 18.3606 117.934 18.2187 118.569 17.9348C119.205 17.6373 119.698 17.2317 120.05 16.718C120.415 16.2041 120.598 15.6025 120.598 14.913C120.598 14.1153 120.354 13.446 119.867 12.9052C119.381 12.3509 118.678 11.9385 117.758 11.6681L115.994 11.1408C115.723 11.0597 115.494 10.9718 115.304 10.8771C115.129 10.7825 115 10.6743 114.919 10.5527C114.838 10.431 114.797 10.2958 114.797 10.147C114.797 9.86312 114.905 9.64004 115.122 9.47781C115.352 9.31554 115.662 9.23445 116.055 9.23445C116.595 9.23445 117.075 9.37639 117.495 9.66032C117.927 9.93073 118.224 10.2958 118.387 10.7555L120.638 9.70089C120.3 8.78149 119.719 8.07168 118.894 7.57144C118.083 7.05767 117.136 6.80078 116.055 6.80078C115.23 6.80078 114.5 6.94949 113.864 7.24694C113.229 7.53087 112.735 7.9297 112.384 8.44347C112.032 8.95728 111.857 9.55891 111.857 10.2485C111.857 11.0326 112.1 11.7154 112.587 12.2968C113.073 12.8646 113.77 13.277 114.675 13.5339L116.561 14.0612C116.805 14.1288 117.008 14.2099 117.17 14.3045C117.332 14.3992 117.454 14.5074 117.535 14.629C117.616 14.7372 117.657 14.8724 117.657 15.0347C117.657 15.3456 117.542 15.589 117.312 15.7647C117.082 15.9405 116.751 16.0284 116.318 16.0284C115.723 16.0284 115.183 15.8594 114.696 15.5214C114.209 15.1834 113.824 14.7169 113.54 14.122L111.309 15.1766C111.633 16.1501 112.242 16.9275 113.134 17.5089Z" fill="#1F2A2E" fill-opacity="0.7"/>
<path d="M133.339 7.04414H136.178V8.38177C136.386 7.97706 136.677 7.65285 137.051 7.40917C137.673 7.00358 138.416 6.80078 139.281 6.80078C140.201 6.80078 141.005 7.03738 141.695 7.51059C142.105 7.77873 142.425 8.10209 142.656 8.48068C142.949 8.05229 143.298 7.70864 143.703 7.44974C144.378 7.0171 145.17 6.80078 146.075 6.80078C146.873 6.80078 147.576 6.97653 148.184 7.32807C148.806 7.67958 149.293 8.17306 149.645 8.80853C149.996 9.43048 150.172 10.1606 150.172 10.9988V18.1173H147.13V11.6478C147.13 11.2152 147.049 10.8434 146.887 10.5324C146.738 10.2214 146.521 9.97806 146.238 9.80227C145.954 9.62652 145.609 9.53862 145.203 9.53862C144.811 9.53862 144.467 9.62652 144.169 9.80227C143.885 9.97806 143.662 10.2214 143.5 10.5324C143.351 10.8434 143.277 11.2152 143.277 11.6478V18.1173H140.235V11.6478C140.235 11.2152 140.154 10.8434 139.991 10.5324C139.842 10.2214 139.626 9.97806 139.342 9.80227C139.058 9.62652 138.714 9.53862 138.308 9.53862C137.916 9.53862 137.571 9.62652 137.274 9.80227C136.99 9.97806 136.767 10.2214 136.604 10.5324C136.456 10.8434 136.381 11.2152 136.381 11.6478V18.1173H133.339V7.04414Z" fill="#1F2A2E" fill-opacity="0.7"/>
<path d="M125.782 18.3604C124.89 18.3604 124.126 18.1712 123.49 17.7926C122.868 17.4005 122.395 16.8597 122.071 16.1701C121.746 15.4806 121.584 14.6762 121.584 13.7568V7.04395H124.626V13.5134C124.626 13.9325 124.707 14.3043 124.869 14.6288C125.045 14.9398 125.289 15.1832 125.6 15.359C125.91 15.5347 126.262 15.6226 126.654 15.6226C127.06 15.6226 127.411 15.5347 127.709 15.359C128.02 15.1832 128.256 14.9398 128.418 14.6288C128.594 14.3043 128.682 13.9325 128.682 13.5134V7.04395H131.724V18.1171H128.885V16.7696C128.627 17.2558 128.262 17.6306 127.79 17.894C127.222 18.205 126.553 18.3604 125.782 18.3604Z" fill="#1F2A2E" fill-opacity="0.7"/>
<path fill-rule="evenodd" clip-rule="evenodd" d="M87.1756 18.3606C86.0804 18.3606 85.0796 18.1105 84.1738 17.6103C83.2814 17.11 82.565 16.4273 82.0241 15.5619C81.497 14.6831 81.2333 13.6894 81.2333 12.5807C81.2333 11.4585 81.497 10.4648 82.0241 9.59947C82.565 8.73416 83.2814 8.0514 84.1738 7.55115C85.0796 7.05091 86.0804 6.80078 87.1756 6.80078C88.2704 6.80078 89.2644 7.05091 90.1568 7.55115C91.0489 8.0514 91.7589 8.73416 92.286 9.59947C92.8269 10.4648 93.0973 11.4585 93.0973 12.5807C93.0973 13.6894 92.8269 14.6831 92.286 15.5619C91.7589 16.4273 91.0489 17.11 90.1568 17.6103C89.2644 18.1105 88.2704 18.3606 87.1756 18.3606ZM87.1756 15.6228C87.7299 15.6228 88.2099 15.4943 88.6152 15.2375C89.0343 14.9806 89.3589 14.6223 89.5887 14.1626C89.8322 13.7029 89.954 13.1756 89.954 12.5807C89.954 11.9858 89.8322 11.4653 89.5887 11.0191C89.3589 10.5594 89.0343 10.2011 88.6152 9.94425C88.2099 9.67384 87.7299 9.53862 87.1756 9.53862C86.6212 9.53862 86.1345 9.67384 85.7154 9.94425C85.2959 10.2011 84.965 10.5594 84.7214 11.0191C84.4917 11.4653 84.3766 11.9858 84.3766 12.5807C84.3766 13.1756 84.4917 13.7029 84.7214 14.1626C84.965 14.6223 85.2959 14.9806 85.7154 15.2375C86.1345 15.4943 86.6212 15.6228 87.1756 15.6228Z" fill="#1F2A2E" fill-opacity="0.7"/>
<path fill-rule="evenodd" clip-rule="evenodd" d="M72.1997 22.1531C72.9296 22.437 73.7208 22.579 74.5725 22.579C75.6404 22.579 76.5802 22.3627 77.3916 21.93C78.2164 21.4973 78.8652 20.8957 79.3385 20.1251C79.8114 19.3679 80.0482 18.5026 80.0482 17.5291V7.04414H77.2089V8.20715C76.8748 7.81519 76.4964 7.5086 76.0733 7.28751C75.4783 6.96301 74.782 6.80078 73.9841 6.80078C72.9703 6.80078 72.0645 7.03062 71.2666 7.4903C70.4691 7.94999 69.8404 8.58545 69.3806 9.39668C68.9208 10.1944 68.691 11.1137 68.691 12.1548C68.691 13.1959 68.9208 14.1288 69.3806 14.9535C69.8404 15.7647 70.4758 16.4069 71.2871 16.8802C72.0981 17.3399 73.0174 17.5697 74.045 17.5697C74.8429 17.5697 75.5392 17.421 76.1339 17.1235C76.4563 16.955 76.7473 16.7407 77.0061 16.4808V17.5291C77.0061 18.0024 76.9048 18.4147 76.702 18.7663C76.5126 19.1178 76.2355 19.3814 75.8705 19.5572C75.5052 19.7465 75.0726 19.8411 74.5725 19.8411C73.9371 19.8411 73.3894 19.6924 72.9296 19.3949C72.4702 19.0975 72.1657 18.6919 72.0171 18.1781L69.1979 19.1719C69.428 19.8614 69.7997 20.4563 70.3137 20.9565C70.8408 21.4703 71.4694 21.8692 72.1997 22.1531ZM75.8096 14.4871C75.4309 14.7034 74.9848 14.8116 74.4709 14.8116C73.9572 14.8116 73.4974 14.7034 73.0921 14.4871C72.6999 14.2572 72.3887 13.9463 72.159 13.5542C71.9427 13.1621 71.8344 12.7092 71.8344 12.1954C71.8344 11.6681 71.9427 11.2084 72.159 10.8163C72.3887 10.4107 72.6999 10.0997 73.0921 9.8834C73.4974 9.65356 73.9572 9.53862 74.4709 9.53862C74.9714 9.53862 75.4107 9.65356 75.7891 9.8834C76.1679 10.0997 76.4652 10.4107 76.6815 10.8163C76.8981 11.2084 77.0061 11.6681 77.0061 12.1954C77.0061 12.7227 76.8981 13.1824 76.6815 13.5744C76.4786 13.9666 76.188 14.2708 75.8096 14.4871Z" fill="#1F2A2E" fill-opacity="0.7"/>
<path fill-rule="evenodd" clip-rule="evenodd" d="M62.0316 18.3606C60.9363 18.3606 59.936 18.1105 59.0301 17.6103C58.1377 17.11 57.4213 16.4273 56.8804 15.5619C56.353 14.6831 56.0896 13.6894 56.0896 12.5807C56.0896 11.4585 56.353 10.4648 56.8804 9.59947C57.4213 8.73416 58.1377 8.0514 59.0301 7.55115C59.936 7.05091 60.9363 6.80078 62.0316 6.80078C63.1268 6.80078 64.1204 7.05091 65.0128 7.55115C65.9052 8.0514 66.6149 8.73416 67.1423 9.59947C67.6832 10.4648 67.9537 11.4585 67.9537 12.5807C67.9537 13.6894 67.6832 14.6831 67.1423 15.5619C66.6149 16.4273 65.9052 17.11 65.0128 17.6103C64.1204 18.1105 63.1268 18.3606 62.0316 18.3606ZM62.0316 15.6228C62.5859 15.6228 63.0659 15.4943 63.4715 15.2375C63.8907 14.9806 64.2153 14.6223 64.445 14.1626C64.6885 13.7029 64.81 13.1756 64.81 12.5807C64.81 11.9858 64.6885 11.4653 64.445 11.0191C64.2153 10.5594 63.8907 10.2011 63.4715 9.94425C63.0659 9.67384 62.5859 9.53862 62.0316 9.53862C61.4772 9.53862 60.9905 9.67384 60.5714 9.94425C60.1523 10.2011 59.8209 10.5594 59.5777 11.0191C59.348 11.4653 59.233 11.9858 59.233 12.5807C59.233 13.1756 59.348 13.7029 59.5777 14.1626C59.8209 14.6223 60.1523 14.9806 60.5714 15.2375C60.9905 15.4943 61.4772 15.6228 62.0316 15.6228Z" fill="#1F2A2E" fill-opacity="0.7"/>
</g>
<defs>
<clipPath id="clip0_113_1363">
<rect width="149.735" height="40" fill="white" transform="translate(0.732788)"/>
</clipPath>
</defs>
</svg>
