<svg width="20" height="20" viewBox="0 0 20 20" fill="none" xmlns="http://www.w3.org/2000/svg">
<path d="M18.1706 8.36791H17.4993V8.33332H9.99935V11.6667H14.7089C14.0219 13.6071 12.1756 15 9.99935 15C7.2381 15 4.99935 12.7612 4.99935 9.99999C4.99935 7.23874 7.2381 4.99999 9.99935 4.99999C11.2739 4.99999 12.4335 5.48082 13.3164 6.26624L15.6735 3.90916C14.1852 2.52207 12.1943 1.66666 9.99935 1.66666C5.39727 1.66666 1.66602 5.39791 1.66602 9.99999C1.66602 14.6021 5.39727 18.3333 9.99935 18.3333C14.6014 18.3333 18.3327 14.6021 18.3327 9.99999C18.3327 9.44124 18.2752 8.89582 18.1706 8.36791Z" fill="#FFC107" stroke="#FFC107"/>
<path d="M2.62695 6.12124L5.36487 8.12916C6.1057 6.29499 7.89987 4.99999 9.99945 4.99999C11.274 4.99999 12.4336 5.48082 13.3165 6.26624L15.6736 3.90916C14.1853 2.52207 12.1945 1.66666 9.99945 1.66666C6.79862 1.66666 4.02279 3.47374 2.62695 6.12124Z" fill="#FF3D00" stroke="#FF3D00"/>
<path d="M10.0008 18.3333C12.1533 18.3333 14.1091 17.5096 15.5879 16.17L13.0087 13.9875C12.1441 14.6455 11.0873 15.0012 10.0008 15C7.83328 15 5.99286 13.6179 5.29953 11.6892L2.58203 13.7829C3.9612 16.4817 6.76203 18.3333 10.0008 18.3333Z" fill="#4CAF50" stroke="#4CAF50"/>
<path d="M18.1713 8.36793H17.5V8.33334H10V11.6667H14.7096C14.3809 12.5902 13.7889 13.3972 13.0067 13.9879L13.0079 13.9871L15.5871 16.1696C15.4046 16.3354 18.3333 14.1667 18.3333 10C18.3333 9.44126 18.2758 8.89584 18.1713 8.36793Z" fill="#1976D2" stroke="#1976D2"/>
</svg>
