<svg width="20" height="20" viewBox="0 0 20 20" fill="none" xmlns="http://www.w3.org/2000/svg">
<path d="M14.1408 14.1061C14.3529 14.3025 14.6027 14.4538 14.875 14.5508C15.1473 14.6478 15.4365 14.6884 15.725 14.6702C16.1822 14.6819 16.6305 14.5428 17.0008 14.2744C17.3025 14.0786 17.5308 13.7877 17.65 13.4494H19.8042C19.5741 14.4139 19.014 15.2676 18.2208 15.8627C17.4588 16.3679 16.5588 16.6241 15.645 16.5961C14.9927 16.6055 14.3453 16.4827 13.7417 16.2352C13.1956 16.0069 12.7056 15.6625 12.3058 15.2261C11.9089 14.7677 11.6034 14.2376 11.4058 13.6644C11.1843 13.0233 11.0763 12.3484 11.0867 11.6702C11.0825 11.0036 11.1942 10.3411 11.4167 9.71273C11.7164 8.82897 12.2879 8.06262 13.0494 7.52321C13.811 6.9838 14.7235 6.69895 15.6567 6.70939C16.3457 6.69619 17.0268 6.85759 17.6367 7.17856C18.1875 7.48023 18.6625 7.90356 19.0267 8.41606C19.3987 8.95352 19.6654 9.55668 19.8125 10.1936C19.9742 10.8777 20.0317 11.5819 19.9833 12.2836H13.5675C13.515 12.9419 13.7208 13.5952 14.1408 14.1061ZM5.78917 3.40356C6.32943 3.39324 6.86894 3.44865 7.39583 3.56856C7.83968 3.66547 8.26106 3.84589 8.6375 4.10023C8.98583 4.35273 9.26083 4.69273 9.43583 5.08523C9.63667 5.56773 9.73333 6.08773 9.72 6.61023C9.74356 7.1846 9.59686 7.75313 9.29833 8.24439C8.98594 8.70897 8.55296 9.07973 8.04583 9.31689C8.73316 9.50294 9.3319 9.92741 9.735 10.5144C10.1217 11.1369 10.3158 11.8602 10.2933 12.5927C10.3064 13.1767 10.1858 13.7558 9.94083 14.2861C9.71441 14.749 9.38245 15.1523 8.97167 15.4636C8.54952 15.7721 8.07406 16.0001 7.56917 16.1361C7.04627 16.2824 6.50549 16.3551 5.9625 16.3519H0V3.40356H5.78917ZM5.59333 14.1536C5.85111 14.1569 6.10556 14.1294 6.35667 14.0711C6.58515 14.0204 6.80183 13.9265 6.995 13.7944C7.185 13.6627 7.3375 13.4852 7.44 13.2786C7.55833 13.0144 7.61333 12.7261 7.59917 12.4377C7.62495 12.1745 7.59014 11.9088 7.49741 11.6611C7.40467 11.4134 7.25648 11.1902 7.06417 11.0086C6.65612 10.7086 6.15649 10.5598 5.65083 10.5877H2.70083V14.1536H5.59333ZM16.9558 9.18106C16.7763 9.00151 16.5604 8.86255 16.3226 8.77356C16.0849 8.68457 15.8308 8.64763 15.5775 8.66523C15.2412 8.65234 14.9074 8.72669 14.6083 8.88106C14.3718 9.01176 14.1629 9.18724 13.9933 9.39773C13.8434 9.59535 13.7314 9.81916 13.6633 10.0577C13.6017 10.2577 13.5636 10.4616 13.5492 10.6694H17.5233C17.4885 10.128 17.2913 9.60961 16.9575 9.18189L16.9558 9.18106ZM5.445 8.64106C5.86975 8.65869 6.28789 8.53146 6.63083 8.28023C6.96333 7.98439 7.13667 7.54689 7.0975 7.10273C7.10883 6.84687 7.05793 6.59209 6.94917 6.36023C6.85673 6.17593 6.71363 6.02185 6.53667 5.91606C6.35715 5.79966 6.15537 5.7219 5.94417 5.68773C5.71499 5.64313 5.48177 5.62275 5.24833 5.62689H2.70083V8.65273H5.445V8.64106ZM18.0167 4.26856H13.0367V5.54106H18.0167V4.26856Z" fill="#1F2A2E"/>
</svg>
