<svg width="20" height="20" viewBox="0 0 20 20" fill="none" xmlns="http://www.w3.org/2000/svg">
<path d="M9.99935 1.66666C8.905 1.66666 7.82137 1.8822 6.81032 2.30099C5.79927 2.71978 4.88061 3.33361 4.10679 4.10743C2.54399 5.67024 1.66602 7.78985 1.66602 9.99999C1.66602 13.6833 4.05768 16.8083 7.36602 17.9167C7.78268 17.9833 7.91602 17.725 7.91602 17.5V16.0917C5.60768 16.5917 5.11602 14.975 5.11602 14.975C4.73268 14.0083 4.19102 13.75 4.19102 13.75C3.43268 13.2333 4.24935 13.25 4.24935 13.25C5.08268 13.3083 5.52435 14.1083 5.52435 14.1083C6.24935 15.375 7.47435 15 7.94935 14.8C8.02435 14.2583 8.24102 13.8917 8.47435 13.6833C6.62435 13.475 4.68268 12.7583 4.68268 9.58332C4.68268 8.65832 4.99935 7.91666 5.54102 7.32499C5.45768 7.11666 5.16602 6.24999 5.62435 5.12499C5.62435 5.12499 6.32435 4.89999 7.91602 5.97499C8.57435 5.79166 9.29102 5.69999 9.99935 5.69999C10.7077 5.69999 11.4243 5.79166 12.0827 5.97499C13.6743 4.89999 14.3743 5.12499 14.3743 5.12499C14.8327 6.24999 14.541 7.11666 14.4577 7.32499C14.9993 7.91666 15.316 8.65832 15.316 9.58332C15.316 12.7667 13.366 13.4667 11.5077 13.675C11.8077 13.9333 12.0827 14.4417 12.0827 15.2167V17.5C12.0827 17.725 12.216 17.9917 12.641 17.9167C15.9493 16.8 18.3327 13.6833 18.3327 9.99999C18.3327 8.90564 18.1171 7.82201 17.6983 6.81096C17.2796 5.79991 16.6657 4.88125 15.8919 4.10743C15.1181 3.33361 14.1994 2.71978 13.1884 2.30099C12.1773 1.8822 11.0937 1.66666 9.99935 1.66666Z" fill="black"/>
</svg>
