<svg width="482" height="478" viewBox="0 0 482 478" fill="none" xmlns="http://www.w3.org/2000/svg">
<path d="M231.438 366.16L253.783 580.495L118.095 579.35L138.205 430.35L138.249 430.021L137.962 429.852L114.412 416.047L114.116 415.874L113.848 416.087L-1.20996 507.771L-71.2891 387.943L120.856 300.842L231.438 366.16Z" stroke="#1F2A2E" stroke-opacity="0.12"/>
<path d="M481.293 219.493L344.986 276.802L344.68 276.931V305.209L344.99 305.337L481.293 361.498L414.553 483.603L244.753 356.396V225.742L414.555 98.5306L481.293 219.493Z" stroke="#1F2A2E" stroke-opacity="0.12"/>
<path d="M231.438 214.839L120.857 280.156L-71.29 193.055L-2.3291 74.3799L113.85 166.062L114.117 166.274L114.412 166.102L137.962 152.296L138.249 152.128L138.205 151.798L118.094 2.79004L253.783 0.508789L231.438 214.839Z" stroke="#1F2A2E" stroke-opacity="0.12"/>
</svg>
