<svg width="194" height="54" viewBox="0 0 194 54" fill="none" xmlns="http://www.w3.org/2000/svg">
<path d="M15.048 44.16C12.7013 44.16 10.582 43.7493 8.69 42.928C6.81267 42.092 5.26533 40.904 4.048 39.364C2.84533 37.8093 2.08267 35.9613 1.76 33.82L8.008 32.896C8.448 34.7147 9.35733 36.1153 10.736 37.098C12.1147 38.0807 13.684 38.572 15.444 38.572C16.4267 38.572 17.38 38.418 18.304 38.11C19.228 37.802 19.9833 37.3473 20.57 36.746C21.1713 36.1447 21.472 35.404 21.472 34.524C21.472 34.2013 21.4207 33.8933 21.318 33.6C21.23 33.292 21.076 33.006 20.856 32.742C20.636 32.478 20.3207 32.2287 19.91 31.994C19.514 31.7593 19.008 31.5467 18.392 31.356L10.164 28.936C9.548 28.76 8.82933 28.5107 8.008 28.188C7.20133 27.8653 6.41667 27.4033 5.654 26.802C4.89133 26.2007 4.25333 25.4087 3.74 24.426C3.24133 23.4287 2.992 22.1747 2.992 20.664C2.992 18.5373 3.52733 16.77 4.598 15.362C5.66867 13.954 7.09867 12.9053 8.888 12.216C10.6773 11.5267 12.6573 11.1893 14.828 11.204C17.0133 11.2333 18.964 11.6073 20.68 12.326C22.396 13.0447 23.8333 14.0933 24.992 15.472C26.1507 16.836 26.9867 18.508 27.5 20.488L21.032 21.588C20.7973 20.5613 20.3647 19.696 19.734 18.992C19.1033 18.288 18.348 17.7527 17.468 17.386C16.6027 17.0193 15.6933 16.8213 14.74 16.792C13.8013 16.7627 12.914 16.8947 12.078 17.188C11.2567 17.4667 10.582 17.8773 10.054 18.42C9.54067 18.9627 9.284 19.608 9.284 20.356C9.284 21.0453 9.49667 21.61 9.922 22.05C10.3473 22.4753 10.8827 22.82 11.528 23.084C12.1733 23.348 12.8333 23.568 13.508 23.744L19.008 25.24C19.8293 25.46 20.7387 25.7533 21.736 26.12C22.7333 26.472 23.6867 26.9707 24.596 27.616C25.52 28.2467 26.2753 29.0827 26.862 30.124C27.4633 31.1653 27.764 32.4853 27.764 34.084C27.764 35.7853 27.4047 37.274 26.686 38.55C25.982 39.8113 25.0287 40.86 23.826 41.696C22.6233 42.5173 21.2593 43.1333 19.734 43.544C18.2233 43.9547 16.6613 44.16 15.048 44.16Z" fill="#1F2A2E"/>
<path d="M45.0955 43.5C43.4529 43.808 41.8395 43.94 40.2555 43.896C38.6862 43.8667 37.2782 43.5953 36.0315 43.082C34.7995 42.554 33.8609 41.7107 33.2155 40.552C32.6289 39.4667 32.3209 38.3667 32.2915 37.252C32.2622 36.1227 32.2475 34.8467 32.2475 33.424V13.14H38.2315V33.072C38.2315 33.996 38.2389 34.832 38.2535 35.58C38.2829 36.3133 38.4369 36.9 38.7155 37.34C39.2435 38.176 40.0869 38.6307 41.2455 38.704C42.4042 38.7773 43.6875 38.7187 45.0955 38.528V43.5ZM28.1995 24.36V19.74H45.0955V24.36H28.1995Z" fill="#1F2A2E"/>
<path d="M57.4743 44.204C55.6116 44.204 54.0936 43.8887 52.9203 43.258C51.747 42.6273 50.8303 41.828 50.1703 40.86C49.525 39.892 49.063 38.8873 48.7843 37.846C48.5056 36.79 48.337 35.8293 48.2783 34.964C48.2196 34.0987 48.1903 33.468 48.1903 33.072V19.74H54.2623V30.96C54.2623 31.5027 54.2916 32.1993 54.3503 33.05C54.409 33.886 54.5923 34.7293 54.9003 35.58C55.2083 36.4307 55.707 37.142 56.3963 37.714C57.1003 38.286 58.0903 38.572 59.3663 38.572C59.8796 38.572 60.4296 38.4913 61.0163 38.33C61.603 38.1687 62.153 37.8607 62.6663 37.406C63.1796 36.9367 63.5976 36.2547 63.9203 35.36C64.2576 34.4507 64.4263 33.2627 64.4263 31.796L67.8583 33.424C67.8583 35.3013 67.477 37.0613 66.7143 38.704C65.9516 40.3467 64.8003 41.674 63.2603 42.686C61.735 43.698 59.8063 44.204 57.4743 44.204ZM65.1743 43.5V35.624H64.4263V19.74H70.4543V43.5H65.1743Z" fill="#1F2A2E"/>
<path d="M84.479 44.16C82.2936 44.16 80.3796 43.61 78.737 42.51C77.0943 41.41 75.811 39.914 74.887 38.022C73.9776 36.13 73.523 33.996 73.523 31.62C73.523 29.2 73.985 27.0513 74.909 25.174C75.8476 23.282 77.1603 21.7933 78.847 20.708C80.5336 19.6227 82.5136 19.08 84.787 19.08C87.0456 19.08 88.945 19.63 90.485 20.73C92.025 21.83 93.191 23.326 93.983 25.218C94.775 27.11 95.171 29.244 95.171 31.62C95.171 33.996 94.7676 36.13 93.961 38.022C93.169 39.914 91.981 41.41 90.397 42.51C88.813 43.61 86.8403 44.16 84.479 44.16ZM85.447 38.836C86.7816 38.836 87.845 38.5353 88.637 37.934C89.4436 37.3327 90.023 36.4893 90.375 35.404C90.727 34.3187 90.903 33.0573 90.903 31.62C90.903 30.1827 90.727 28.9213 90.375 27.836C90.023 26.7507 89.4583 25.9073 88.681 25.306C87.9183 24.7047 86.9136 24.404 85.667 24.404C84.3323 24.404 83.2323 24.734 82.367 25.394C81.5163 26.0393 80.8856 26.912 80.475 28.012C80.0643 29.0973 79.859 30.3 79.859 31.62C79.859 32.9547 80.057 34.172 80.453 35.272C80.849 36.3573 81.4576 37.2227 82.279 37.868C83.1003 38.5133 84.1563 38.836 85.447 38.836ZM90.903 43.5V27.22H90.155V11.82H96.183V43.5H90.903Z" fill="#1F2A2E"/>
<path d="M101.023 16.44V11.16H107.007V16.44H101.023ZM101.023 43.5V19.74H107.007V43.5H101.023Z" fill="#1F2A2E"/>
<path d="M122.534 44.16C120.144 44.16 118.046 43.6247 116.242 42.554C114.438 41.4833 113.03 40.0093 112.018 38.132C111.021 36.24 110.522 34.0693 110.522 31.62C110.522 29.1413 111.036 26.9633 112.062 25.086C113.089 23.194 114.505 21.72 116.309 20.664C118.113 19.608 120.188 19.08 122.534 19.08C124.925 19.08 127.022 19.6153 128.826 20.686C130.645 21.7567 132.061 23.238 133.073 25.13C134.085 27.0073 134.59 29.1707 134.59 31.62C134.59 34.084 134.077 36.262 133.05 38.154C132.038 40.0313 130.623 41.5053 128.804 42.576C127 43.632 124.91 44.16 122.534 44.16ZM122.534 38.572C124.456 38.572 125.886 37.9267 126.824 36.636C127.778 35.3307 128.254 33.6587 128.254 31.62C128.254 29.508 127.77 27.8213 126.802 26.56C125.849 25.2987 124.426 24.668 122.534 24.668C121.229 24.668 120.158 24.9613 119.323 25.548C118.486 26.1347 117.863 26.9487 117.452 27.99C117.056 29.0313 116.858 30.2413 116.858 31.62C116.858 33.7467 117.335 35.4407 118.288 36.702C119.256 37.9487 120.672 38.572 122.534 38.572Z" fill="#1F2A2E"/>
<path d="M143.233 43.5L134.609 19.74H140.593L146.225 36.196L151.857 19.74H157.841L149.217 43.5H143.233Z" fill="#1F2A2E"/>
<path d="M165.325 44.16C163.624 44.16 162.179 43.8373 160.991 43.192C159.818 42.532 158.923 41.6593 158.307 40.574C157.705 39.474 157.405 38.264 157.405 36.944C157.405 35.844 157.573 34.8393 157.911 33.93C158.248 33.0207 158.791 32.2213 159.539 31.532C160.302 30.828 161.321 30.2413 162.597 29.772C163.477 29.4493 164.526 29.1633 165.743 28.914C166.96 28.6647 168.339 28.43 169.879 28.21C171.419 27.9753 173.113 27.7187 174.961 27.44L172.805 28.628C172.805 27.22 172.468 26.186 171.793 25.526C171.118 24.866 169.989 24.536 168.405 24.536C167.525 24.536 166.608 24.7487 165.655 25.174C164.702 25.5993 164.034 26.3547 163.653 27.44L158.241 25.724C158.842 23.7587 159.972 22.16 161.629 20.928C163.286 19.696 165.545 19.08 168.405 19.08C170.502 19.08 172.365 19.4027 173.993 20.048C175.621 20.6933 176.853 21.808 177.689 23.392C178.158 24.272 178.437 25.152 178.525 26.032C178.613 26.912 178.657 27.8947 178.657 28.98V43.5H173.421V38.616L174.169 39.628C173.01 41.2267 171.756 42.3853 170.407 43.104C169.072 43.808 167.378 44.16 165.325 44.16ZM166.601 39.452C167.701 39.452 168.625 39.2613 169.373 38.88C170.136 38.484 170.737 38.0367 171.177 37.538C171.632 37.0393 171.94 36.6213 172.101 36.284C172.409 35.6387 172.585 34.8907 172.629 34.04C172.688 33.1747 172.717 32.456 172.717 31.884L174.477 32.324C172.702 32.6173 171.265 32.8667 170.165 33.072C169.065 33.2627 168.178 33.4387 167.503 33.6C166.828 33.7613 166.234 33.9373 165.721 34.128C165.134 34.3627 164.658 34.6193 164.291 34.898C163.939 35.162 163.675 35.4553 163.499 35.778C163.337 36.1007 163.257 36.46 163.257 36.856C163.257 37.3987 163.389 37.868 163.653 38.264C163.932 38.6453 164.32 38.9387 164.819 39.144C165.318 39.3493 165.912 39.452 166.601 39.452Z" fill="#1F2A2E"/>
<path d="M183.585 43.5V37.516H189.569V43.5H183.585Z" fill="#1F2A2E"/>
</svg>
